<svg xmlns="http://www.w3.org/2000/svg" width="18" height="18" viewBox="0 0 18 18" fill="none">
    <path
        d="M17.0196 3.20593L15.3508 4.875L13.125 2.64946L14.7944 0.9804C15.1016 0.6732 15.5998 0.6732 15.907 0.9804L17.0196 2.09331C17.3268 2.40049 17.3268 2.89873 17.0196 3.20593ZM5.12153 10.65L7.35 12.8784L4.38 13.62L5.12153 10.65ZM14.61 5.4936L7.80358 12.3L5.535 10.0314L12.3409 3.225L14.61 5.4936ZM2.52055 3.67559V15.4794H14.3244V6.62655L16.095 5.44616V16.6598C16.095 17.1059 15.9509 17.25 15.5047 17.25H1.55805C1.11195 17.25 0.75 16.8886 0.75 16.4425V2.49521C0.75 2.0491 0.893523 1.905 1.34019 1.905H12.5538L10.7832 3.67559H2.52055Z"
        fill="#242A2E" />
</svg>