<svg width="20" height="20" viewBox="0 0 20 20" fill="none" xmlns="http://www.w3.org/2000/svg">
    <mask id="path-1-inside-1_16737_7669" fill="white">
        <path fill-rule="evenodd" clip-rule="evenodd"
            d="M20 7C20 3.13401 16.866 -1.36992e-07 13 -3.0598e-07L5 -6.55671e-07C2.23858 -7.76376e-07 -9.78513e-08 2.23858 -2.18557e-07 5L-6.55671e-07 15C-7.76376e-07 17.7614 2.23858 20 5 20L13 20C16.866 20 20 16.866 20 13L20 7ZM12.4829 13.9595C12.1357 14.35 12.1357 14.9832 12.4829 15.3737C12.83 15.7642 13.3928 15.7642 13.74 15.3737L16.4066 12.3737C16.6608 12.0877 16.7369 11.6576 16.5993 11.2839C16.4617 10.9103 16.1376 10.6666 15.7781 10.6666L4.22254 10.6666C3.73162 10.6666 3.33366 11.1143 3.33366 11.6666C3.33366 12.2189 3.73162 12.6666 4.22254 12.6666L11.9023 12.6666C12.5726 12.6666 12.9282 13.4585 12.4829 13.9595ZM7.51772 5.70711C7.86485 5.31658 7.86485 4.68342 7.51772 4.29289C7.17059 3.90237 6.60777 3.90237 6.26064 4.29289L3.59398 7.29289C3.33976 7.57889 3.26371 8.00901 3.40129 8.38268C3.53888 8.75636 3.863 9 4.22252 9L15.7781 9C16.269 9 16.6669 8.55228 16.6669 8C16.6669 7.44771 16.269 7 15.7781 7L8.09831 7C7.42805 7 7.07242 6.20807 7.51772 5.70711Z" />
    </mask>
    <path fill-rule="evenodd" clip-rule="evenodd"
        d="M20 7C20 3.13401 16.866 -1.36992e-07 13 -3.0598e-07L5 -6.55671e-07C2.23858 -7.76376e-07 -9.78513e-08 2.23858 -2.18557e-07 5L-6.55671e-07 15C-7.76376e-07 17.7614 2.23858 20 5 20L13 20C16.866 20 20 16.866 20 13L20 7ZM12.4829 13.9595C12.1357 14.35 12.1357 14.9832 12.4829 15.3737C12.83 15.7642 13.3928 15.7642 13.74 15.3737L16.4066 12.3737C16.6608 12.0877 16.7369 11.6576 16.5993 11.2839C16.4617 10.9103 16.1376 10.6666 15.7781 10.6666L4.22254 10.6666C3.73162 10.6666 3.33366 11.1143 3.33366 11.6666C3.33366 12.2189 3.73162 12.6666 4.22254 12.6666L11.9023 12.6666C12.5726 12.6666 12.9282 13.4585 12.4829 13.9595ZM7.51772 5.70711C7.86485 5.31658 7.86485 4.68342 7.51772 4.29289C7.17059 3.90237 6.60777 3.90237 6.26064 4.29289L3.59398 7.29289C3.33976 7.57889 3.26371 8.00901 3.40129 8.38268C3.53888 8.75636 3.863 9 4.22252 9L15.7781 9C16.269 9 16.6669 8.55228 16.6669 8C16.6669 7.44771 16.269 7 15.7781 7L8.09831 7C7.42805 7 7.07242 6.20807 7.51772 5.70711Z"
        fill="#FF0083" />
    <path
        d="M13.74 15.3737L14.4874 16.0381L14.4874 16.0381L13.74 15.3737ZM16.4066 12.3737L17.154 13.0381L17.154 13.0381L16.4066 12.3737ZM16.5993 11.2839L15.6609 11.6294L15.6609 11.6294L16.5993 11.2839ZM7.51772 4.29289L8.26513 3.62853L8.26513 3.62853L7.51772 4.29289ZM6.26064 4.29289L5.51323 3.62853L5.51323 3.62853L6.26064 4.29289ZM3.59398 7.29289L4.34139 7.95726L4.34139 7.95726L3.59398 7.29289ZM3.40129 8.38268L2.46288 8.72819L2.46288 8.7282L3.40129 8.38268ZM13 1C16.3137 1 19 3.68629 19 7L21 7C21 2.58172 17.4183 -1 13 -1L13 1ZM5 0.999999L13 1L13 -1L5 -1L5 0.999999ZM1 5C1 2.79086 2.79086 0.999999 5 0.999999L5 -1C1.68629 -1 -1 1.68629 -1 5L1 5ZM0.999999 15L1 5L-1 5L-1 15L0.999999 15ZM5 19C2.79086 19 0.999999 17.2091 0.999999 15L-1 15C-1 18.3137 1.68629 21 5 21L5 19ZM13 19L5 19L5 21L13 21L13 19ZM19 13C19 16.3137 16.3137 19 13 19L13 21C17.4183 21 21 17.4183 21 13L19 13ZM19 7L19 13L21 13L21 7L19 7ZM13.2303 14.7094C13.233 14.7124 13.2312 14.7117 13.2284 14.7038C13.2253 14.6954 13.2225 14.6824 13.2225 14.6666C13.2225 14.6508 13.2253 14.6378 13.2284 14.6294C13.2312 14.6216 13.233 14.6208 13.2303 14.6239L11.7355 13.2951C11.0516 14.0646 11.0516 15.2687 11.7355 16.0381L13.2303 14.7094ZM12.9925 14.7094C13.003 14.6976 13.0447 14.6666 13.1114 14.6666C13.1782 14.6666 13.2199 14.6976 13.2303 14.7094L11.7355 16.0381C12.4804 16.8761 13.7424 16.8761 14.4874 16.0381L12.9925 14.7094ZM15.6592 11.7094L12.9925 14.7094L14.4874 16.0381L17.154 13.0381L15.6592 11.7094ZM15.6609 11.6294C15.6665 11.6446 15.669 11.6659 15.6652 11.6876C15.6613 11.7096 15.6541 11.7151 15.6592 11.7094L17.154 13.0381C17.6655 12.4627 17.7963 11.6406 17.5377 10.9384L15.6609 11.6294ZM15.7781 11.6666C15.7272 11.6666 15.6897 11.6485 15.671 11.6345C15.6536 11.6214 15.6556 11.6151 15.6609 11.6294L17.5377 10.9384C17.2758 10.2272 16.613 9.66662 15.7781 9.66662L15.7781 11.6666ZM4.22254 11.6666L15.7781 11.6666L15.7781 9.66662L4.22254 9.66662L4.22254 11.6666ZM4.33366 11.6666C4.33366 11.6301 4.34676 11.6179 4.34141 11.6239C4.33823 11.6275 4.32765 11.638 4.30622 11.6482C4.28357 11.659 4.25416 11.6666 4.22254 11.6666L4.22254 9.66662C3.07187 9.66662 2.33366 10.676 2.33366 11.6666L4.33366 11.6666ZM4.22254 11.6666C4.25416 11.6666 4.28357 11.6743 4.30622 11.685C4.32765 11.6952 4.33823 11.7058 4.34142 11.7094C4.34676 11.7154 4.33366 11.7031 4.33366 11.6666L2.33366 11.6666C2.33366 12.6572 3.07186 13.6666 4.22254 13.6666L4.22254 11.6666ZM11.9023 11.6666L4.22254 11.6666L4.22254 13.6666L11.9023 13.6666L11.9023 11.6666ZM6.77031 4.95726C6.76758 4.95418 6.7694 4.95494 6.77223 4.9628C6.77526 4.97119 6.77807 4.98417 6.77807 5C6.77807 5.01583 6.77526 5.0288 6.77223 5.0372C6.7694 5.04506 6.76758 5.04581 6.77031 5.04274L8.26513 6.37147C8.94905 5.60206 8.94905 4.39794 8.26513 3.62853L6.77031 4.95726ZM7.00805 4.95726C6.99764 4.96897 6.95594 5 6.88918 5C6.82242 5 6.78072 4.96897 6.77031 4.95726L8.26513 3.62853C7.52021 2.79049 6.25816 2.79049 5.51323 3.62853L7.00805 4.95726ZM4.34139 7.95726L7.00805 4.95726L5.51323 3.62853L2.84657 6.62853L4.34139 7.95726ZM4.33971 8.03717C4.33413 8.02203 4.33159 8.00076 4.33544 7.97902C4.33932 7.95706 4.34647 7.95155 4.34139 7.95726L2.84657 6.62853C2.33514 7.20389 2.20434 8.026 2.46288 8.72819L4.33971 8.03717ZM4.22252 8C4.27343 8 4.31094 8.01813 4.32955 8.03212C4.34702 8.04525 4.345 8.05154 4.33971 8.03716L2.46288 8.7282C2.72476 9.43944 3.3876 10 4.22252 10L4.22252 8ZM15.7781 8L4.22252 8L4.22252 10L15.7781 10L15.7781 8ZM15.6669 8C15.6669 8.03654 15.6538 8.04876 15.6592 8.04274C15.6624 8.03916 15.6729 8.02863 15.6944 8.01843C15.717 8.00765 15.7464 8 15.7781 8L15.7781 10C16.9287 10 17.6669 8.99058 17.6669 8L15.6669 8ZM15.7781 8C15.7464 8 15.717 7.99235 15.6944 7.98157C15.6729 7.97137 15.6624 7.96084 15.6592 7.95726C15.6538 7.95124 15.6669 7.96346 15.6669 8L17.6669 8C17.6669 7.00941 16.9287 6 15.7781 6L15.7781 8ZM8.09831 8L15.7781 8L15.7781 6L8.09831 6L8.09831 8ZM8.09831 6C8.29089 6 8.39307 6.22753 8.26513 6.37147L6.77031 5.04274C5.75176 6.18861 6.5652 8 8.09831 8L8.09831 6ZM11.9023 13.6666C11.7097 13.6666 11.6075 13.4391 11.7355 13.2951L13.2303 14.6239C14.2488 13.478 13.4354 11.6666 11.9023 11.6666L11.9023 13.6666Z"
        fill="#FF0083" mask="url(#path-1-inside-1_16737_7669)" />
</svg>
    