<svg width="12" height="14" viewBox="0 0 12 14" fill="none" xmlns="http://www.w3.org/2000/svg">
    <path
        d="M8.56898 13.4246C8.56306 13.3753 8.56056 13.3257 8.5615 13.276C8.5534 13.2608 8.5483 13.2438 8.54653 13.2263V11.0931C8.54653 10.4212 8.32991 9.84759 7.89666 9.37342C9.05513 9.15273 9.92161 8.68184 10.4956 7.95967C11.0696 7.23749 11.3571 6.36346 11.3571 5.3381C11.3571 4.37883 11.0751 3.54631 10.5106 2.84108C10.7122 2.13529 10.6768 1.39126 10.4053 0.608457C10.1228 0.586594 9.81581 0.639052 9.4834 0.765779C9.15097 0.892507 8.9044 1.01105 8.74269 1.12084C8.58196 1.2312 8.43571 1.3361 8.30494 1.4355C7.72048 1.25906 7.0681 1.17057 6.34837 1.17057C5.62761 1.17057 4.98075 1.25906 4.40626 1.4355C4.29545 1.34703 4.16668 1.25088 4.02094 1.14598C3.87467 1.0411 3.62062 0.91437 3.25777 0.765779C2.89539 0.616643 2.56798 0.553271 2.27547 0.575679C1.99347 1.36942 1.96352 2.12436 2.18513 2.84107C1.63111 3.54686 1.35409 4.37883 1.35409 5.33808C1.35409 6.36345 1.6361 7.23476 2.20012 7.95092C2.76413 8.66765 3.63061 9.1418 4.79906 9.37342C4.49994 9.68766 4.2902 10.0898 4.19512 10.5315C3.33862 10.7626 2.73916 10.5971 2.39676 10.0344C1.76187 9.02053 1.19286 8.65672 0.689252 8.94351C0.618385 9.02053 0.628856 9.10029 0.719201 9.18332C0.810044 9.26581 0.945795 9.37615 1.12748 9.51383C1.30865 9.65203 1.44444 9.80335 1.53526 9.96886C1.54525 9.99072 1.57319 10.071 1.61863 10.2087C1.66202 10.3416 1.70728 10.4739 1.75439 10.6053C1.79932 10.732 1.88516 10.873 2.01144 11.027C2.13721 11.1816 2.28347 11.3111 2.44968 11.416C2.61589 11.5203 2.84498 11.5979 3.13697 11.6476C3.42897 11.6967 3.76138 11.6995 4.13422 11.6558V13.3175C4.13422 13.3339 4.13173 13.3612 4.12674 13.4006C4.12176 13.4388 8.56898 13.4246 8.56898 13.4246Z"
        fill="#121619" fill-opacity="0.5" />
</svg>
    